<?xml version="1.0" encoding="iso-8859-1"?>
<!-- Generator: Adobe Illustrator 19.0.0, SVG Export Plug-In . SVG Version: 6.00 Build 0)  -->
<svg xmlns="http://www.w3.org/2000/svg" xmlns:xlink="http://www.w3.org/1999/xlink" version="1.1" id="Capa_1" x="0px" y="0px" viewBox="0 0 490 490" style="enable-background:new 0 0 490 490;" xml:space="preserve" width="512px" height="512px">
<g>
	<g>
		<path d="M465.5,104.57v330.6l-28.4-13.6c-27.6-13.2-57.2-19.4-90.6-19.4c-28,0-56,4.7-81.7,9.7l-19.8,4.3l-19.8-4.3    c-25.3-5.1-53.7-9.7-81.7-9.7c-33.4,0-63,6.2-90.6,19.4l-28.4,13.6v-330.6H0v339.9h490v-339.9H465.5z" fill="#CCAD00"/>
		<g>
			<path d="M234.9,393.47V56.67c-18.7-3.9-37.7-7.4-56.4-9.3v145.4l-33.8-29.2l-33.8,29.2V47.37c-22.2,2.7-44.3,8.9-66.5,19.4v336.8     C108.1,373.67,171.5,380.27,234.9,393.47z" fill="#CCAD00"/>
			<path d="M445.7,403.57V66.77c-63.4-29.9-127.2-23.3-190.6-10.1v336.8C318.5,380.27,381.9,373.67,445.7,403.57z" fill="#CCAD00"/>
		</g>
	</g>
</g>
<g>
</g>
<g>
</g>
<g>
</g>
<g>
</g>
<g>
</g>
<g>
</g>
<g>
</g>
<g>
</g>
<g>
</g>
<g>
</g>
<g>
</g>
<g>
</g>
<g>
</g>
<g>
</g>
<g>
</g>
</svg>
